<svg xmlns="http://www.w3.org/2000/svg" width="960" height="540" viewBox="0 0 960 540" role="img" aria-labelledby="title desc">
  <title id="title">Particles placeholder</title>
  <desc id="desc">Placeholder screenshot for the Particle Systems example.</desc>
  <rect width="960" height="540" fill="#0a0c0e"/>
  <rect x="30" y="30" width="900" height="480" fill="#16171c" stroke="#4d515a" stroke-width="4"/>
  <g fill="#A2D8B4">
    <circle cx="165" cy="184" r="10"/>
    <circle cx="230" cy="230" r="12"/>
    <circle cx="295" cy="278" r="11"/>
    <circle cx="360" cy="185" r="9"/>
    <circle cx="425" cy="232" r="10"/>
    <circle cx="490" cy="280" r="12"/>
    <circle cx="555" cy="185" r="11"/>
    <circle cx="620" cy="232" r="9"/>
    <circle cx="685" cy="280" r="10"/>
    <circle cx="750" cy="184" r="11"/>
  </g>
  <g fill="rgb(73, 129, 181)">
    <circle cx="198" cy="315" r="8"/>
    <circle cx="265" cy="344" r="8"/>
    <circle cx="332" cy="370" r="8"/>
    <circle cx="399" cy="394" r="8"/>
    <circle cx="466" cy="418" r="8"/>
    <circle cx="533" cy="394" r="8"/>
    <circle cx="600" cy="370" r="8"/>
    <circle cx="667" cy="344" r="8"/>
    <circle cx="734" cy="315" r="8"/>
  </g>
  <text x="56" y="90" fill="#dde0e6" font-size="34" font-family="Inter, Helvetica, Arial, sans-serif">Particle Systems</text>
</svg>
